<svg xmlns="http://www.w3.org/2000/svg" version="1.1" xmlns:xlink="http://www.w3.org/1999/xlink" xmlns:svgjs="http://svgjs.com/svgjs" width="512" height="512" x="0" y="0" viewBox="0 0 512 512" style="enable-background:new 0 0 512 512" xml:space="preserve" class=""><g><script></script><g xmlns="http://www.w3.org/2000/svg"><g><path d="m317 390c-18.601 0-35.455-8.895-46.004-23.313-16.342 7.212-35.387 6.489-51.496-2.812-16.107-9.3-26.257-25.431-28.183-43.192-17.762-1.926-33.893-12.075-43.192-28.183s-10.023-35.152-2.812-51.496c-14.417-10.55-23.313-27.405-23.313-46.004s8.896-35.454 23.313-46.003c-7.214-16.346-6.489-35.389 2.812-51.497 9.299-16.106 25.432-26.256 43.192-28.184 1.926-17.762 12.075-33.892 28.183-43.191 16.107-9.301 35.153-10.021 51.497-2.812 10.549-14.417 27.404-23.313 46.003-23.313 18.601 0 35.455 8.895 46.004 23.313 16.344-7.213 35.39-6.488 51.496 2.812 16.107 9.3 26.257 25.43 28.183 43.191 17.763 1.927 33.893 12.076 43.192 28.184 9.301 16.108 10.025 35.151 2.812 51.497 14.417 10.549 23.313 27.404 23.313 46.003s-8.896 35.454-23.313 46.004c7.212 16.344 6.488 35.389-2.812 51.496-9.299 16.106-25.432 26.255-43.192 28.183-1.926 17.762-12.075 33.893-28.183 43.192-16.108 9.302-35.152 10.024-51.497 2.812-10.549 14.417-27.404 23.313-46.003 23.313z" fill="#d5d3ea" data-original="#d5d3ea"></path><path d="m512 195c0-18.599-8.896-35.454-23.313-46.003 7.214-16.346 6.489-35.389-2.812-51.497-9.3-16.107-25.43-26.257-43.192-28.184-1.926-17.762-12.075-33.892-28.183-43.191-16.106-9.3-35.152-10.024-51.496-2.812-10.549-14.418-27.403-23.313-46.004-23.313v390c18.599 0 35.454-8.896 46.003-23.313 16.345 7.213 35.389 6.49 51.497-2.812 16.107-9.3 26.257-25.431 28.183-43.192 17.761-1.928 33.894-12.076 43.192-28.183 9.3-16.107 10.023-35.152 2.812-51.496 14.417-10.55 23.313-27.405 23.313-46.004z" fill="#b4b9f1" data-original="#b4b9f1" class=""></path></g><path d="m195 512c-18.601 0-35.455-8.895-46.004-23.313-16.342 7.212-35.387 6.489-51.496-2.812-16.107-9.3-26.257-25.431-28.183-43.192-17.762-1.926-33.893-12.075-43.192-28.183s-10.023-35.152-2.812-51.496c-14.417-10.55-23.313-27.405-23.313-46.004s8.896-35.454 23.313-46.003c-7.214-16.346-6.489-35.389 2.812-51.497 9.299-16.106 25.432-26.256 43.192-28.184 1.926-17.762 12.075-33.892 28.183-43.191 16.107-9.301 35.153-10.021 51.497-2.812 10.549-14.417 27.404-23.313 46.003-23.313 18.601 0 35.455 8.895 46.004 23.313 16.344-7.213 35.39-6.488 51.496 2.812 16.107 9.3 26.257 25.43 28.183 43.191 17.763 1.927 33.893 12.076 43.192 28.184 9.301 16.108 10.025 35.151 2.812 51.497 14.417 10.549 23.313 27.404 23.313 46.003s-8.896 35.454-23.313 46.004c7.212 16.344 6.488 35.389-2.812 51.496-9.299 16.106-25.432 26.255-43.192 28.183-1.926 17.762-12.075 33.893-28.183 43.192-16.108 9.302-35.152 10.024-51.497 2.812-10.549 14.417-27.404 23.313-46.003 23.313z" fill="#f9f1f1" data-original="#f9f1f1"></path><path d="m390 317c0-18.599-8.896-35.454-23.313-46.003 7.214-16.346 6.489-35.389-2.812-51.497-9.3-16.107-25.43-26.257-43.192-28.184-1.926-17.762-12.075-33.892-28.183-43.191-16.106-9.3-35.152-10.024-51.496-2.812-10.549-14.418-27.403-23.313-46.004-23.313v390c18.599 0 35.454-8.896 46.003-23.313 16.345 7.213 35.389 6.49 51.497-2.812 16.107-9.3 26.257-25.431 28.183-43.192 17.761-1.928 33.894-12.076 43.192-28.183 9.3-16.107 10.023-35.152 2.812-51.496 14.417-10.55 23.313-27.405 23.313-46.004z" fill="#e2dff4" data-original="#e2dff4"></path><path d="m225.929 398.25c-33.527 0-60.804-27.276-60.804-60.804 0-27.213 22.14-49.353 49.353-49.353 22.478 0 40.765 18.287 40.765 40.765 0 8.284-6.716 15-15 15s-15-6.716-15-15c0-5.936-4.829-10.765-10.765-10.765-10.671 0-19.353 8.682-19.353 19.353 0 16.985 13.818 30.804 30.804 30.804 25.403 0 46.071-20.668 46.071-46.071 0-36.629-29.8-66.429-66.429-66.429-51.596 0-93.571 41.976-93.571 93.571 0 8.284-6.716 15-15 15s-15-6.716-15-15c0-68.138 55.434-123.571 123.571-123.571 53.171 0 96.429 43.258 96.429 96.429 0 41.946-34.125 76.071-76.071 76.071z" fill="#ff8659" data-original="#ff8659"></path><g><path d="m205.571 225.75c-3.561 0-7.085.16-10.571.457v30.144c3.471-.392 6.997-.601 10.571-.601 36.629 0 66.429 29.8 66.429 66.429 0 25.403-20.668 46.071-46.071 46.071-16.985 0-30.804-13.818-30.804-30.804 0-10.671 8.682-19.353 19.353-19.353 5.936 0 10.765 4.829 10.765 10.765 0 8.284 6.716 15 15 15s15-6.716 15-15c0-22.478-18.287-40.765-40.765-40.765-6.914 0-13.498 1.435-19.478 4.014v97.659c9.068 5.381 19.641 8.483 30.929 8.483 41.946 0 76.071-34.125 76.071-76.071 0-53.17-43.258-96.428-96.429-96.428z" fill="#ff4a4a" data-original="#ff4a4a"></path></g></g></g></svg>